<svg xmlns="http://www.w3.org/2000/svg" xmlns:xlink="http://www.w3.org/1999/xlink" width="1812" zoomAndPan="magnify" viewBox="0 0 1359 294.749989" height="393" preserveAspectRatio="xMidYMid meet" version="1.0"><defs><g/><clipPath id="63f807e164"><path d="M 23.230469 43.238281 L 235 43.238281 L 235 251.558594 L 23.230469 251.558594 Z M 23.230469 43.238281 " clip-rule="nonzero"/></clipPath><clipPath id="3da4ddaf68"><path d="M 958.398438 108.789062 L 1329.332031 108.789062 L 1329.332031 227.9375 L 958.398438 227.9375 Z M 958.398438 108.789062 " clip-rule="nonzero"/></clipPath><clipPath id="3d15c81bf5"><rect x="0" width="658" y="0" height="261"/></clipPath></defs><g clip-path="url(#63f807e164)"><path fill="#fbf0df" d="M 129.085938 43.238281 C 70.550781 43.238281 23.230469 90.910156 23.230469 149.882812 C 23.230469 197.027344 53.550781 236.929688 95.613281 251.054688 C 100.871094 252.117188 102.796875 248.757812 102.796875 245.9375 C 102.796875 243.464844 102.625 234.988281 102.625 226.160156 C 73.175781 232.515625 67.042969 213.445312 67.042969 213.445312 C 62.3125 201.085938 55.300781 197.910156 55.300781 197.910156 C 45.660156 191.375 56.003906 191.375 56.003906 191.375 C 66.691406 192.082031 72.304688 202.324219 72.304688 202.324219 C 81.765625 218.566406 97.015625 213.976562 103.148438 211.152344 C 104.023438 204.265625 106.828125 199.496094 109.808594 196.851562 C 86.324219 194.378906 61.613281 185.195312 61.613281 144.234375 C 61.613281 132.578125 65.816406 123.046875 72.476562 115.628906 C 71.425781 112.980469 67.746094 102.03125 73.53125 87.378906 C 73.53125 87.378906 82.46875 84.554688 102.621094 98.324219 C 111.289062 95.980469 120.109375 94.804688 129.085938 94.792969 C 138.027344 94.792969 147.136719 96.03125 155.550781 98.324219 C 175.707031 84.554688 184.644531 87.378906 184.644531 87.378906 C 190.429688 102.03125 186.746094 112.980469 185.695312 115.628906 C 192.53125 123.046875 196.5625 132.578125 196.5625 144.234375 C 196.5625 185.195312 171.851562 194.199219 148.191406 196.851562 C 152.046875 200.203125 155.375 206.558594 155.375 216.625 C 155.375 230.925781 155.203125 242.402344 155.203125 245.933594 C 155.203125 248.757812 157.132812 252.117188 162.386719 251.054688 C 204.449219 236.929688 234.769531 197.027344 234.769531 149.882812 C 234.945312 90.910156 187.449219 43.238281 129.085938 43.238281 Z M 129.085938 43.238281 " fill-opacity="1" fill-rule="evenodd"/></g><path fill="#000000" d="M 171.824219 128.1875 C 171.613281 127.957031 171.394531 127.730469 171.171875 127.515625 C 170.949219 127.300781 170.738281 127.0625 170.519531 126.847656 C 170.296875 126.632812 170.085938 126.390625 169.863281 126.175781 C 169.644531 125.960938 169.433594 125.71875 169.210938 125.507812 C 168.988281 125.292969 168.78125 125.050781 168.558594 124.835938 C 168.335938 124.621094 168.128906 124.378906 167.90625 124.164062 C 167.683594 123.953125 167.472656 123.710938 167.253906 123.496094 C 173.730469 130.027344 177.441406 138.917969 177.582031 148.238281 C 177.582031 170.449219 155.617188 188.515625 128.605469 188.515625 C 113.484375 188.515625 99.953125 182.847656 90.953125 173.960938 L 91.605469 174.628906 L 92.257812 175.300781 L 92.914062 175.96875 L 93.566406 176.640625 L 94.21875 177.308594 L 95.523438 178.652344 C 104.511719 187.914062 118.339844 193.875 133.832031 193.875 C 160.839844 193.875 182.808594 175.808594 182.808594 153.667969 C 182.808594 144.203125 178.835938 135.238281 171.824219 128.1875 Z M 171.824219 128.1875 " fill-opacity="1" fill-rule="nonzero"/><path fill="#fbf0df" d="M 174.316406 148.238281 C 174.316406 168.625 153.851562 185.152344 128.605469 185.152344 C 103.359375 185.152344 82.894531 168.625 82.894531 148.238281 C 82.894531 135.597656 90.730469 124.433594 102.773438 117.8125 C 114.816406 111.191406 122.3125 104.410156 128.605469 104.410156 C 134.902344 104.410156 140.28125 109.945312 154.441406 117.8125 C 166.480469 124.433594 174.316406 135.597656 174.316406 148.238281 Z M 174.316406 148.238281 " fill-opacity="1" fill-rule="nonzero"/><path fill="#f6dece" d="M 174.316406 148.238281 C 174.3125 145.621094 173.960938 143.011719 173.273438 140.492188 C 169.707031 185.125 116.65625 187.269531 95.800781 173.917969 C 105.175781 181.378906 116.746094 185.339844 128.605469 185.152344 C 153.8125 185.152344 174.316406 168.597656 174.316406 148.238281 Z M 174.316406 148.238281 " fill-opacity="1" fill-rule="nonzero"/><path fill="#fffefc" d="M 111.015625 115.359375 C 116.851562 111.769531 124.609375 105.027344 132.238281 105.011719 C 131.0625 104.621094 129.839844 104.417969 128.605469 104.410156 C 125.445312 104.410156 122.078125 106.085938 117.832031 108.605469 C 116.355469 109.488281 114.828125 110.46875 113.207031 111.484375 C 110.164062 113.417969 106.679688 115.601562 102.761719 117.785156 C 90.328125 124.6875 82.894531 136.066406 82.894531 148.238281 C 82.894531 148.773438 82.894531 149.3125 82.894531 149.832031 C 90.808594 121.136719 105.1875 118.953125 111.015625 115.359375 Z M 111.015625 115.359375 " fill-opacity="1" fill-rule="nonzero"/><path fill="#ccbea7" d="M 124.84375 107.800781 C 124.863281 110.964844 124.214844 114.097656 122.945312 116.980469 C 121.679688 119.867188 119.816406 122.433594 117.492188 124.515625 C 117.125 124.847656 117.414062 125.492188 117.882812 125.304688 C 122.285156 123.550781 128.226562 118.296875 125.71875 107.691406 C 125.617188 107.089844 124.84375 107.25 124.84375 107.800781 Z M 127.808594 107.800781 C 129.40625 110.476562 130.421875 113.476562 130.785156 116.589844 C 131.148438 119.707031 130.851562 122.867188 129.914062 125.855469 C 129.757812 126.324219 130.316406 126.726562 130.632812 126.335938 C 133.492188 122.585938 135.984375 115.132812 128.515625 107.089844 C 128.136719 106.742188 127.546875 107.277344 127.808594 107.746094 Z M 131.414062 107.574219 C 133.917969 109.390625 136.011719 111.738281 137.554688 114.457031 C 139.097656 117.175781 140.054688 120.203125 140.359375 123.335938 C 140.347656 123.449219 140.378906 123.5625 140.445312 123.652344 C 140.511719 123.742188 140.609375 123.804688 140.71875 123.824219 C 140.828125 123.84375 140.9375 123.816406 141.03125 123.753906 C 141.121094 123.691406 141.1875 123.59375 141.210938 123.480469 C 142.410156 118.804688 141.734375 110.828125 131.847656 106.6875 C 131.324219 106.472656 130.984375 107.195312 131.414062 107.519531 Z M 107.304688 121.511719 C 110.28125 120.597656 113.039062 119.054688 115.394531 116.976562 C 117.75 114.894531 119.652344 112.332031 120.980469 109.449219 C 121.214844 108.964844 121.957031 109.152344 121.839844 109.691406 C 119.582031 120.414062 112.019531 122.652344 107.316406 122.355469 C 106.820312 122.371094 106.835938 121.660156 107.304688 121.511719 Z M 107.304688 121.511719 " fill-opacity="1" fill-rule="evenodd"/><path fill="#000000" d="M 128.605469 188.515625 C 101.597656 188.515625 79.628906 170.449219 79.628906 148.238281 C 79.628906 134.835938 87.703125 122.328125 101.21875 114.835938 C 105.136719 112.691406 108.492188 110.535156 111.484375 108.644531 C 113.128906 107.597656 114.683594 106.621094 116.1875 105.710938 C 120.769531 102.921875 124.6875 101.058594 128.605469 101.058594 C 132.523438 101.058594 135.945312 102.667969 140.230469 105.265625 C 141.535156 106.03125 142.84375 106.863281 144.238281 107.773438 C 147.492188 109.835938 151.160156 112.167969 155.996094 114.835938 C 169.511719 122.328125 177.582031 134.820312 177.582031 148.238281 C 177.582031 170.449219 155.617188 188.515625 128.605469 188.515625 Z M 128.605469 104.410156 C 125.445312 104.410156 122.078125 106.085938 117.832031 108.605469 C 116.355469 109.488281 114.828125 110.46875 113.207031 111.484375 C 110.164062 113.417969 106.679688 115.601562 102.761719 117.785156 C 90.328125 124.6875 82.894531 136.066406 82.894531 148.238281 C 82.894531 168.597656 103.398438 185.164062 128.605469 185.164062 C 153.8125 185.164062 174.316406 168.597656 174.316406 148.238281 C 174.316406 136.066406 166.886719 124.6875 154.441406 117.8125 C 149.503906 115.132812 145.652344 112.613281 142.527344 110.628906 C 141.105469 109.730469 139.800781 108.898438 138.609375 108.160156 C 134.652344 105.75 131.765625 104.410156 128.605469 104.410156 Z M 128.605469 104.410156 " fill-opacity="1" fill-rule="nonzero"/><path fill="#b71422" d="M 137.8125 158.023438 C 137.226562 160.488281 135.890625 162.699219 134 164.335938 C 132.582031 165.75 130.742188 166.636719 128.777344 166.855469 C 126.75 166.671875 124.847656 165.78125 123.382812 164.335938 C 121.511719 162.691406 120.195312 160.480469 119.621094 158.023438 C 119.601562 157.875 119.617188 157.726562 119.660156 157.589844 C 119.707031 157.449219 119.785156 157.320312 119.882812 157.21875 C 119.984375 157.113281 120.109375 157.03125 120.242188 156.984375 C 120.378906 156.9375 120.523438 156.917969 120.664062 156.9375 L 136.78125 156.9375 C 136.925781 156.921875 137.066406 156.9375 137.199219 156.988281 C 137.335938 157.039062 137.457031 157.117188 137.554688 157.222656 C 137.65625 157.328125 137.730469 157.453125 137.773438 157.59375 C 137.820312 157.730469 137.832031 157.878906 137.8125 158.023438 Z M 137.8125 158.023438 " fill-opacity="1" fill-rule="nonzero"/><path fill="#ff6164" d="M 123.382812 164.441406 C 124.84375 165.890625 126.742188 166.785156 128.761719 166.988281 C 130.78125 166.785156 132.671875 165.886719 134.132812 164.441406 C 134.597656 163.996094 135.035156 163.515625 135.4375 163.007812 C 134.632812 162.070312 133.648438 161.3125 132.550781 160.78125 C 131.449219 160.25 130.253906 159.953125 129.039062 159.914062 C 127.738281 159.945312 126.460938 160.300781 125.324219 160.949219 C 124.1875 161.597656 123.21875 162.519531 122.507812 163.640625 C 122.808594 163.921875 123.070312 164.1875 123.382812 164.441406 Z M 123.382812 164.441406 " fill-opacity="1" fill-rule="nonzero"/><path fill="#000000" d="M 123.589844 163.382812 C 124.238281 162.523438 125.066406 161.828125 126.015625 161.34375 C 126.964844 160.863281 128.003906 160.605469 129.0625 160.597656 C 131.019531 160.65625 132.882812 161.464844 134.289062 162.859375 C 134.589844 162.527344 134.875 162.175781 135.148438 161.828125 C 133.488281 160.207031 131.292969 159.28125 129 159.242188 C 127.773438 159.253906 126.5625 159.542969 125.460938 160.089844 C 124.355469 160.636719 123.382812 161.425781 122.613281 162.40625 C 122.921875 162.75 123.246094 163.078125 123.589844 163.382812 Z M 123.589844 163.382812 " fill-opacity="1" fill-rule="nonzero"/><path fill="#000000" d="M 128.722656 167.660156 C 126.546875 167.464844 124.5 166.519531 122.914062 164.980469 C 120.890625 163.222656 119.46875 160.851562 118.851562 158.210938 C 118.804688 157.976562 118.8125 157.734375 118.871094 157.5 C 118.929688 157.269531 119.039062 157.054688 119.191406 156.871094 C 119.371094 156.648438 119.59375 156.472656 119.851562 156.351562 C 120.105469 156.234375 120.386719 156.175781 120.664062 156.1875 L 136.78125 156.1875 C 137.0625 156.179688 137.339844 156.238281 137.597656 156.355469 C 137.851562 156.476562 138.078125 156.652344 138.257812 156.871094 C 138.40625 157.054688 138.515625 157.269531 138.570312 157.503906 C 138.625 157.734375 138.632812 157.976562 138.585938 158.210938 C 137.96875 160.851562 136.542969 163.222656 134.523438 164.980469 C 132.9375 166.515625 130.894531 167.460938 128.722656 167.660156 Z M 120.664062 157.742188 C 120.457031 157.742188 120.40625 157.835938 120.390625 157.863281 C 120.945312 160.152344 122.191406 162.203125 123.957031 163.71875 C 125.246094 165.023438 126.925781 165.847656 128.722656 166.066406 C 130.519531 165.851562 132.195312 165.035156 133.492188 163.746094 C 135.25 162.230469 136.496094 160.179688 137.042969 157.890625 C 137.015625 157.847656 136.976562 157.8125 136.929688 157.789062 C 136.882812 157.769531 136.832031 157.761719 136.78125 157.769531 Z M 120.664062 157.742188 " fill-opacity="1" fill-rule="nonzero"/><path fill="#febbd0" d="M 148.484375 158.855469 C 152.703125 158.855469 156.125 156.789062 156.125 154.242188 C 156.125 151.695312 152.703125 149.632812 148.484375 149.632812 C 144.265625 149.632812 140.84375 151.695312 140.84375 154.242188 C 140.84375 156.789062 144.265625 158.855469 148.484375 158.855469 Z M 148.484375 158.855469 " fill-opacity="1" fill-rule="nonzero"/><path fill="#febbd0" d="M 108.949219 158.855469 C 113.171875 158.855469 116.589844 156.789062 116.589844 154.242188 C 116.589844 151.695312 113.171875 149.632812 108.949219 149.632812 C 104.730469 149.632812 101.308594 151.695312 101.308594 154.242188 C 101.308594 156.789062 104.730469 158.855469 108.949219 158.855469 Z M 108.949219 158.855469 " fill-opacity="1" fill-rule="nonzero"/><path fill="#000000" d="M 112.542969 152.394531 C 113.964844 152.394531 115.359375 151.964844 116.542969 151.15625 C 117.730469 150.34375 118.652344 149.191406 119.199219 147.84375 C 119.746094 146.496094 119.890625 145.007812 119.613281 143.574219 C 119.339844 142.140625 118.65625 140.824219 117.648438 139.789062 C 116.644531 138.757812 115.359375 138.050781 113.964844 137.765625 C 112.566406 137.480469 111.121094 137.625 109.804688 138.183594 C 108.488281 138.742188 107.363281 139.6875 106.574219 140.902344 C 105.78125 142.117188 105.359375 143.546875 105.359375 145.007812 C 105.359375 146.964844 106.117188 148.839844 107.460938 150.226562 C 108.808594 151.609375 110.636719 152.390625 112.542969 152.394531 Z M 144.894531 152.394531 C 146.320312 152.402344 147.714844 151.980469 148.90625 151.175781 C 150.09375 150.371094 151.027344 149.21875 151.578125 147.871094 C 152.132812 146.523438 152.28125 145.035156 152.007812 143.601562 C 151.738281 142.164062 151.058594 140.84375 150.050781 139.804688 C 149.046875 138.765625 147.765625 138.058594 146.367188 137.769531 C 144.972656 137.480469 143.523438 137.621094 142.203125 138.179688 C 140.886719 138.738281 139.757812 139.683594 138.964844 140.898438 C 138.171875 142.113281 137.75 143.546875 137.75 145.007812 C 137.746094 146.957031 138.496094 148.832031 139.835938 150.214844 C 141.171875 151.597656 142.992188 152.382812 144.894531 152.394531 Z M 144.894531 152.394531 " fill-opacity="1" fill-rule="evenodd"/><path fill="#ffffff" d="M 110.320312 145.476562 C 110.855469 145.480469 111.382812 145.320312 111.828125 145.015625 C 112.273438 144.710938 112.621094 144.28125 112.828125 143.773438 C 113.035156 143.265625 113.089844 142.707031 112.988281 142.167969 C 112.886719 141.628906 112.628906 141.136719 112.25 140.746094 C 111.875 140.355469 111.390625 140.089844 110.867188 139.984375 C 110.34375 139.875 109.796875 139.929688 109.304688 140.136719 C 108.808594 140.347656 108.386719 140.703125 108.089844 141.160156 C 107.789062 141.617188 107.632812 142.152344 107.632812 142.703125 C 107.632812 143.4375 107.914062 144.140625 108.417969 144.660156 C 108.921875 145.179688 109.609375 145.472656 110.320312 145.476562 Z M 142.671875 145.476562 C 143.207031 145.480469 143.730469 145.320312 144.179688 145.015625 C 144.625 144.710938 144.972656 144.28125 145.179688 143.773438 C 145.386719 143.265625 145.441406 142.707031 145.339844 142.167969 C 145.234375 141.628906 144.980469 141.136719 144.601562 140.746094 C 144.226562 140.355469 143.742188 140.089844 143.21875 139.984375 C 142.695312 139.875 142.148438 139.929688 141.65625 140.136719 C 141.160156 140.347656 140.738281 140.703125 140.4375 141.160156 C 140.140625 141.617188 139.984375 142.152344 139.984375 142.703125 C 139.984375 143.429688 140.261719 144.132812 140.761719 144.652344 C 141.257812 145.167969 141.9375 145.464844 142.648438 145.476562 Z M 142.671875 145.476562 " fill-opacity="1" fill-rule="evenodd"/><g clip-path="url(#3da4ddaf68)"><path fill="#c12127" d="M 1072.53125 227.9375 L 1120.085938 227.9375 L 1120.085938 204.109375 L 1167.644531 204.109375 L 1167.644531 108.789062 L 1072.53125 108.789062 Z M 1120.085938 132.621094 L 1143.867188 132.621094 L 1143.867188 180.277344 L 1120.085938 180.277344 Z M 1186.664062 108.789062 L 1186.664062 204.109375 L 1234.222656 204.109375 L 1234.222656 132.621094 L 1258 132.621094 L 1258 204.109375 L 1281.777344 204.109375 L 1281.777344 132.621094 L 1305.554688 132.621094 L 1305.554688 204.109375 L 1329.332031 204.109375 L 1329.332031 108.789062 Z M 958.398438 204.109375 L 1005.953125 204.109375 L 1005.953125 132.621094 L 1029.730469 132.621094 L 1029.730469 204.109375 L 1053.507812 204.109375 L 1053.507812 108.789062 L 958.398438 108.789062 Z M 958.398438 204.109375 " fill-opacity="1" fill-rule="nonzero"/></g><g transform="matrix(1, 0, 0, 1, 269, 23)"><g clip-path="url(#3d15c81bf5)"><g fill="#fbf0df" fill-opacity="1"><g transform="translate(0.327581, 199.982228)"><g><path d="M 69.875 1.65625 C 60.289062 1.65625 51.625 0.117188 43.875 -2.953125 C 36.132812 -6.023438 29.46875 -10.476562 23.875 -16.3125 C 18.28125 -22.15625 13.976562 -29.222656 10.96875 -37.515625 C 7.957031 -45.816406 6.453125 -55.128906 6.453125 -65.453125 C 6.453125 -76.640625 8.109375 -86.59375 11.421875 -95.3125 C 14.742188 -104.039062 19.445312 -111.445312 25.53125 -117.53125 C 31.613281 -123.625 38.863281 -128.234375 47.28125 -131.359375 C 55.707031 -134.492188 65.144531 -136.0625 75.59375 -136.0625 C 87.269531 -136.0625 97.65625 -134.1875 106.75 -130.4375 C 115.84375 -126.695312 123.25 -121.414062 128.96875 -114.59375 C 134.6875 -107.769531 138.160156 -99.5625 139.390625 -89.96875 L 110.25 -89.96875 C 108.90625 -94.269531 106.632812 -98.050781 103.4375 -101.3125 C 100.238281 -104.570312 96.269531 -107.09375 91.53125 -108.875 C 86.800781 -110.65625 81.425781 -111.546875 75.40625 -111.546875 C 66.800781 -111.546875 59.578125 -109.671875 53.734375 -105.921875 C 47.898438 -102.171875 43.476562 -96.914062 40.46875 -90.15625 C 37.457031 -83.394531 35.953125 -75.46875 35.953125 -66.375 C 35.953125 -59.25 36.875 -52.921875 38.71875 -47.390625 C 40.5625 -41.859375 43.171875 -37.21875 46.546875 -33.46875 C 49.929688 -29.71875 53.988281 -26.859375 58.71875 -24.890625 C 63.457031 -22.921875 68.773438 -21.9375 74.671875 -21.9375 C 81.796875 -21.9375 88.03125 -23.195312 93.375 -25.71875 C 98.726562 -28.238281 102.910156 -31.769531 105.921875 -36.3125 C 108.929688 -40.863281 110.4375 -46.210938 110.4375 -52.359375 L 110.4375 -58.078125 L 116.34375 -52.734375 L 72.28125 -52.734375 L 72.28125 -73.5625 L 141.046875 -73.5625 L 141.046875 0 L 118.1875 0 L 116.703125 -21.203125 L 115.609375 -21.203125 C 113.515625 -16.648438 110.191406 -12.65625 105.640625 -9.21875 C 101.097656 -5.78125 95.753906 -3.109375 89.609375 -1.203125 C 83.460938 0.703125 76.882812 1.65625 69.875 1.65625 Z M 69.875 1.65625 "/></g></g></g><g fill="#fbf0df" fill-opacity="1"><g transform="translate(151.135882, 199.982228)"><g><path d="M 11.609375 0 L 11.609375 -98.828125 L 38.71875 -98.828125 L 38.71875 0 Z M 25.0625 -110.4375 C 20.882812 -110.4375 17.441406 -111.539062 14.734375 -113.75 C 12.035156 -115.96875 10.6875 -119.046875 10.6875 -122.984375 C 10.6875 -127.035156 12.035156 -130.164062 14.734375 -132.375 C 17.441406 -134.59375 20.882812 -135.703125 25.0625 -135.703125 C 29.363281 -135.703125 32.867188 -134.59375 35.578125 -132.375 C 38.285156 -130.164062 39.640625 -127.035156 39.640625 -122.984375 C 39.640625 -119.046875 38.285156 -115.96875 35.578125 -113.75 C 32.867188 -111.539062 29.363281 -110.4375 25.0625 -110.4375 Z M 25.0625 -110.4375 "/></g></g></g><g fill="#fbf0df" fill-opacity="1"><g transform="translate(201.46676, 199.982228)"><g><path d="M 45.90625 0 C 37.425781 0 31.15625 -1.992188 27.09375 -5.984375 C 23.039062 -9.984375 21.015625 -16.347656 21.015625 -25.078125 L 21.015625 -77.0625 L 3.3125 -77.0625 L 3.3125 -98.828125 L 21.015625 -98.828125 L 21.015625 -125.75 L 48.125 -128.328125 L 48.125 -98.828125 L 68.03125 -98.828125 L 68.03125 -77.0625 L 48.125 -77.0625 L 48.125 -30.046875 C 48.125 -26.972656 48.859375 -24.882812 50.328125 -23.78125 C 51.804688 -22.675781 53.898438 -22.125 56.609375 -22.125 L 68.03125 -22.125 L 68.03125 0 Z M 45.90625 0 "/></g></g></g><g fill="#fbf0df" fill-opacity="1"><g transform="translate(275.949039, 199.982228)"><g><path d="M 12.71875 0 L 12.71875 -134.40625 L 41.484375 -134.40625 L 41.484375 0 Z M 104.71875 0 L 104.71875 -134.40625 L 133.484375 -134.40625 L 133.484375 0 Z M 35.40625 -56.421875 L 35.40625 -80.9375 L 110.8125 -80.9375 L 110.8125 -56.421875 Z M 35.40625 -56.421875 "/></g></g></g><g fill="#fbf0df" fill-opacity="1"><g transform="translate(422.148216, 199.982228)"><g><path d="M 45.171875 1.65625 C 37.671875 1.65625 31.273438 0.179688 25.984375 -2.765625 C 20.703125 -5.710938 16.707031 -10.101562 14 -15.9375 C 11.300781 -21.78125 9.953125 -28.882812 9.953125 -37.25 L 9.953125 -98.828125 L 37.0625 -98.828125 L 37.0625 -44.4375 C 37.0625 -39.269531 37.707031 -34.90625 39 -31.34375 C 40.289062 -27.78125 42.316406 -25.046875 45.078125 -23.140625 C 47.847656 -21.234375 51.441406 -20.28125 55.859375 -20.28125 C 60.410156 -20.28125 64.285156 -21.382812 67.484375 -23.59375 C 70.679688 -25.8125 73.140625 -28.734375 74.859375 -32.359375 C 76.578125 -35.984375 77.4375 -39.945312 77.4375 -44.25 L 77.4375 -98.828125 L 104.546875 -98.828125 L 104.546875 0 L 78.546875 0 L 77.4375 -18.0625 L 76.328125 -18.0625 C 73.867188 -11.675781 69.84375 -6.789062 64.25 -3.40625 C 58.65625 -0.03125 52.296875 1.65625 45.171875 1.65625 Z M 45.171875 1.65625 "/></g></g></g><g fill="#fbf0df" fill-opacity="1"><g transform="translate(538.296369, 199.982228)"><g><path d="M 70.4375 1.84375 C 65.519531 1.84375 61 1.078125 56.875 -0.453125 C 52.757812 -1.992188 49.226562 -4.175781 46.28125 -7 C 43.332031 -9.832031 41.179688 -13.03125 39.828125 -16.59375 L 38.34375 -16.59375 L 37.421875 0 L 11.609375 0 L 11.609375 -134.40625 L 38.71875 -134.40625 L 38.71875 -82.046875 L 39.828125 -82.046875 C 41.910156 -87.578125 45.6875 -92.0625 51.15625 -95.5 C 56.632812 -98.945312 63.0625 -100.671875 70.4375 -100.671875 C 76.582031 -100.671875 82.113281 -99.5 87.03125 -97.15625 C 91.945312 -94.820312 96.1875 -91.472656 99.75 -87.109375 C 103.3125 -82.753906 106.046875 -77.410156 107.953125 -71.078125 C 109.859375 -64.742188 110.8125 -57.519531 110.8125 -49.40625 C 110.8125 -38.71875 109.117188 -29.53125 105.734375 -21.84375 C 102.359375 -14.164062 97.65625 -8.296875 91.625 -4.234375 C 85.601562 -0.179688 78.539062 1.84375 70.4375 1.84375 Z M 60.109375 -20.09375 C 65.148438 -20.09375 69.390625 -21.289062 72.828125 -23.6875 C 76.265625 -26.082031 78.8125 -29.492188 80.46875 -33.921875 C 82.132812 -38.347656 82.96875 -43.507812 82.96875 -49.40625 C 82.96875 -53.832031 82.535156 -57.859375 81.671875 -61.484375 C 80.816406 -65.109375 79.46875 -68.179688 77.625 -70.703125 C 75.78125 -73.222656 73.441406 -75.191406 70.609375 -76.609375 C 67.785156 -78.023438 64.46875 -78.734375 60.65625 -78.734375 C 55.863281 -78.734375 51.804688 -77.65625 48.484375 -75.5 C 45.171875 -73.351562 42.710938 -70.4375 41.109375 -66.75 C 39.515625 -63.0625 38.71875 -58.878906 38.71875 -54.203125 L 38.71875 -44.4375 C 38.71875 -39.644531 39.578125 -35.429688 41.296875 -31.796875 C 43.015625 -28.171875 45.472656 -25.3125 48.671875 -23.21875 C 51.867188 -21.132812 55.679688 -20.09375 60.109375 -20.09375 Z M 60.109375 -20.09375 "/></g></g></g></g></g></svg>